<mxfile host="app.diagrams.net" modified="2023-11-14T14:24:34.094Z" agent="Mozilla/5.0 (Windows NT 10.0; Win64; x64) AppleWebKit/537.36 (KHTML, like Gecko) Chrome/119.0.0.0 Safari/537.36" version="22.1.0" etag="T_p-_YgqGtNRq3brXja6" type="github">
  <diagram name="Page-1" id="e7j6DICnT6soIS8DjQe3">
    <mxGraphModel>
      <root>
        <mxCell id="0" />
        <mxCell id="1" parent="0" />
      </root>
    </mxGraphModel>
  </diagram>
</mxfile>
